<svg width="21" height="20" viewBox="0 0 21 20" fill="none" xmlns="http://www.w3.org/2000/svg">
<path d="M5.49777 8.1579C5.86569 8.1579 6.16395 8.48779 6.16395 8.89473C7.25302 8.89473 8.25488 9.30766 9.04857 9.99963L10.4942 10C11.382 10 12.1796 10.4268 12.7285 11.105L14.8244 11.1053C16.1517 11.1053 17.2976 11.9639 17.833 13.2063C16.2576 15.5057 13.7065 17 10.8273 17C8.96816 17 7.39626 16.5555 6.1234 15.7784C6.03118 16.061 5.78582 16.2632 5.49777 16.2632H3.4992C3.13127 16.2632 2.83301 15.9333 2.83301 15.5263V8.89473C2.83301 8.48779 3.13127 8.1579 3.4992 8.1579H5.49777ZM6.16463 10.3684L6.16395 14.0688L6.19417 14.0928C7.3892 15.0215 8.94737 15.5263 10.8273 15.5263C12.8285 15.5263 14.6903 14.6748 16.047 13.2204L16.1355 13.122L16.0561 13.048C15.747 12.7805 15.3678 12.6146 14.961 12.584L14.8244 12.5789H13.4178C13.4664 12.8159 13.4921 13.0625 13.4921 13.3158V14.0526H7.49633V12.5789L12.0198 12.5782L11.9969 12.5204C11.7434 11.9356 11.2191 11.5218 10.6037 11.4776L10.4942 11.4737L8.54264 11.4736C7.93825 10.7917 7.09611 10.3686 6.16463 10.3684ZM4.83158 9.63158H4.16539V14.7895H4.83158V9.63158ZM14.1582 5.21053C15.262 5.21053 16.1568 6.20021 16.1568 7.42105C16.1568 8.64189 15.262 9.63158 14.1582 9.63158C13.0544 9.63158 12.1597 8.64189 12.1597 7.42105C12.1597 6.20021 13.0544 5.21053 14.1582 5.21053ZM14.1582 6.68421C13.7903 6.68421 13.4921 7.0141 13.4921 7.42105C13.4921 7.828 13.7903 8.1579 14.1582 8.1579C14.5262 8.1579 14.8244 7.828 14.8244 7.42105C14.8244 7.0141 14.5262 6.68421 14.1582 6.68421ZM9.49492 3C10.5987 3 11.4935 3.98968 11.4935 5.21053C11.4935 6.43136 10.5987 7.42105 9.49492 7.42105C8.39113 7.42105 7.49633 6.43136 7.49633 5.21053C7.49633 3.98968 8.39113 3 9.49492 3ZM9.49492 4.47368C9.12698 4.47368 8.82873 4.80358 8.82873 5.21053C8.82873 5.61747 9.12698 5.94737 9.49492 5.94737C9.86285 5.94737 10.1611 5.61747 10.1611 5.21053C10.1611 4.80358 9.86285 4.47368 9.49492 4.47368Z" fill="#D79129"/>
</svg>
