<svg width="151" height="151" viewBox="0 0 151 151" fill="none" xmlns="http://www.w3.org/2000/svg">
<path d="M40.8178 61.6163L54.4179 48.0728L40.8178 34.5292L61.8999 13.5411L69.3795 20.9881L55.7794 34.5292L61.8999 40.6257L75.5 27.0821L82.9795 34.5292L48.2974 69.0609L40.8178 61.6138V61.6163ZM34.6822 109.704L110.185 34.5317L75.5 0L68.0205 7.44708L95.2231 34.5317L34.6822 94.81L14.9616 75.1724L21.0821 69.0784L34.6822 82.622L42.1768 75.1624L21.0947 54.1743L0 75.1724L34.6822 109.704ZM75.5126 96.1631L82.9946 88.716L75.5 81.2564L68.0205 88.7034L75.5126 96.1631ZM75.5 150.345L151 75.1724L116.305 40.6282L108.823 48.0753L136.038 75.1724L129.918 81.2664L102.703 54.1692L95.2231 61.6163L122.438 88.7135L116.318 94.8074L89.1026 67.7103L81.6205 75.1574L108.838 102.257L102.713 108.349L89.1126 94.8074L81.6331 102.255L95.2332 115.798L89.1126 121.892L61.8974 94.7949L40.8027 115.798L61.8974 136.801L69.377 129.354L55.7769 115.811L61.8974 109.717L81.618 129.354L68.0179 142.898L75.4975 150.345H75.5Z" fill="white"/>
</svg>
