<svg width="774" height="770" viewBox="0 0 774 770" fill="none" xmlns="http://www.w3.org/2000/svg">
<path d="M209.225 315.572L278.937 246.208L209.225 176.843L317.288 69.3513L355.627 107.492L285.916 176.843L317.288 208.067L387 138.703L425.339 176.843L247.564 353.699L209.225 315.559V315.572ZM177.775 561.856L564.788 176.856L387 0L348.661 38.1407L488.097 176.856L177.775 485.575L76.6905 385L108.063 353.789L177.775 423.154L216.191 384.949L108.128 277.457L0 385L177.775 561.856ZM387.064 492.505L425.416 454.364L387 416.159L348.661 454.3L387.064 492.505ZM387 770L774 385L596.161 208.08L557.809 246.22L697.309 385L665.937 416.211L526.436 277.431L488.097 315.572L627.598 454.351L596.225 485.562L456.724 346.782L418.373 384.923L557.886 523.715L526.488 554.913L456.776 485.562L418.437 523.703L488.149 593.067L456.776 624.278L317.275 485.498L209.148 593.067L317.275 700.636L355.614 662.495L285.903 593.131L317.275 561.92L418.36 662.495L348.648 731.859L386.987 770H387Z" fill="url(#paint0_linear_2469_19528)"/>
<defs>
<linearGradient id="paint0_linear_2469_19528" x1="0" y1="385" x2="774" y2="385" gradientUnits="userSpaceOnUse">
<stop stop-color="#D79129"/>
<stop offset="0.3" stop-color="#E49F26"/>
<stop offset="0.53" stop-color="#EAAB21"/>
<stop offset="0.8" stop-color="#F1B61C"/>
<stop offset="1" stop-color="#FAC214"/>
</linearGradient>
</defs>
</svg>
