<svg width="280" height="133" viewBox="0 0 280 133" fill="none" xmlns="http://www.w3.org/2000/svg">
<g clip-path="url(#clip0_1040_3478)">
<path d="M35.7584 54.2142L47.6728 42.2976L35.7584 30.3811L54.2274 11.9143L60.7798 18.4668L48.8655 30.3811L54.2274 35.7452L66.1417 23.8287L72.6942 30.3811L42.3109 60.7644L35.7584 54.212V54.2142ZM30.3833 96.525L96.5272 30.3833L66.1417 0L59.5893 6.55244L83.4202 30.3833L30.3833 83.4202L13.1071 66.1417L18.469 60.7798L30.3833 72.6964L36.949 66.1329L18.48 47.6661L0 66.1417L30.3833 96.525ZM66.1528 84.6107L72.7074 78.0583L66.1417 71.4948L59.5893 78.0472L66.1528 84.6107ZM66.1417 132.283L132.283 66.1417L101.889 35.7474L95.3345 42.2998L119.176 66.1417L113.814 71.5036L89.9726 47.6617L83.4202 54.2142L107.262 78.0561L101.9 83.4179L78.0583 59.5761L71.5036 66.1285L95.3477 89.9726L89.9814 95.3323L78.0671 83.4179L71.5146 89.9704L83.429 101.887L78.0671 107.249L54.2252 83.4069L35.7452 101.887L54.2252 120.367L60.7776 113.814L48.8633 101.898L54.2252 96.5361L71.5014 113.814L59.5871 125.731L66.1395 132.283H66.1417Z" fill="url(#paint0_linear_1040_3478)"/>
<path d="M155.222 56.1655V54.8317H159.505V54.6289C159.505 54.3974 159.435 54.2276 159.294 54.1218C159.153 54.0159 158.899 53.963 158.535 53.963H155.802V52.8893C156.086 52.2698 156.547 51.7054 157.184 51.1917C157.821 50.6802 158.496 50.3274 159.203 50.1334L159.781 51.4386C159.437 51.5158 159.078 51.6657 158.703 51.8884C158.328 52.1111 158.008 52.358 157.746 52.6292H158.597C159.386 52.6292 159.999 52.7879 160.436 53.1076C160.87 53.4273 161.088 53.9057 161.088 54.5429V56.1678H155.224L155.222 56.1655Z" fill="#1B1C4F"/>
<path d="M153.52 66.1859C151.676 66.1859 150.248 65.7119 149.236 64.7639C148.224 63.8158 147.717 62.4908 147.717 60.7888C147.717 60.3236 147.748 59.8562 147.807 59.3822C147.869 58.9081 147.964 58.4451 148.096 57.9888C148.228 57.5346 148.374 57.1047 148.537 56.6968H151.392C151.251 57.3538 151.139 57.9932 151.057 58.6105C150.975 59.23 150.936 59.8385 150.936 60.4382C150.936 61.3664 151.205 62.1116 151.74 62.6716C152.276 63.2338 153.002 63.5138 153.912 63.5138H164.455V44.1365H167.705V66.1837H153.52V66.1859Z" fill="#1B1C4F"/>
<path d="M172.112 63.5161H182.23C182.067 62.6078 181.87 61.7612 181.637 60.9785C181.403 60.1958 181.136 59.4749 180.832 58.8178C180.223 57.5612 179.461 56.4434 178.539 55.4667C177.618 54.49 176.489 53.6235 175.153 52.8695L176.367 50.0563C177.988 50.7904 179.41 51.7826 180.636 53.0304C181.862 54.2783 182.878 55.7709 183.689 57.5126C184.498 59.2522 185.096 61.2541 185.482 63.5183H192.2C192.301 63.5183 192.352 63.558 192.352 63.6352V66.0427C192.352 66.1397 192.301 66.1882 192.2 66.1882H172.115V63.5183L172.112 63.5161Z" fill="#1B1C4F"/>
<path d="M197.259 47.3554C196.772 47.3554 196.384 47.2099 196.095 46.9167C195.806 46.6234 195.663 46.2178 195.663 45.7019C195.663 45.186 195.802 44.7583 196.082 44.4739C196.362 44.1894 196.754 44.0483 197.259 44.0483C197.764 44.0483 198.183 44.1938 198.463 44.4871C198.743 44.7803 198.882 45.186 198.882 45.7019C198.882 46.2178 198.736 46.6036 198.45 46.9034C198.161 47.2055 197.764 47.3554 197.259 47.3554Z" fill="#1B1C4F"/>
<path d="M191.892 66.1859C191.791 66.1859 191.74 66.1374 191.74 66.0404V63.6328C191.74 63.5557 191.791 63.516 191.892 63.516H195.841V50.7043H199.153V63.516H254.782C254.884 63.516 254.934 63.5557 254.934 63.6328V66.0404C254.934 66.1374 254.884 66.1859 254.782 66.1859H191.892Z" fill="#1B1C4F"/>
<path d="M274.927 66.186C274.036 66.186 273.201 66.0273 272.42 65.7076C271.64 65.3879 270.866 64.8522 270.096 64.0982C269.611 64.7353 268.976 65.2446 268.198 65.6216C267.418 65.9986 266.5 66.1882 265.449 66.1882H254.48C254.379 66.1882 254.328 66.1397 254.328 66.0427V63.6352C254.328 63.558 254.379 63.5183 254.48 63.5183H258.643V52.9709H261.864V63.5183H264.933C265.905 63.5183 266.655 63.2229 267.182 62.6342C267.709 62.0456 267.971 61.2188 267.971 60.1539V52.9709H271.192V60.9079C271.192 61.0821 271.172 61.2563 271.13 61.4304C271.637 62.2043 272.173 62.7467 272.74 63.0553C273.306 63.364 274.025 63.5205 274.896 63.5205H276.779V50.7089H280V66.1882H274.927V66.186Z" fill="#1B1C4F"/>
<path d="M157.12 80.7064C156.763 80.3823 156.359 80.1067 155.918 79.8862C155.486 79.6702 155.041 79.4894 154.6 79.3483C153.857 79.1035 153.246 78.861 152.783 78.6295C152.338 78.4068 152.007 78.1665 151.802 77.9218C151.608 77.6881 151.513 77.4302 151.513 77.1391C151.513 76.8194 151.646 76.5461 151.915 76.3013C152.186 76.0566 152.631 75.9309 153.24 75.9309C153.681 75.9309 154.071 76.0103 154.399 76.1646C154.734 76.3212 155.03 76.535 155.283 76.7974C155.541 77.0664 155.764 77.3596 155.945 77.6705L156.042 77.838L156.216 77.7476L158.145 76.7335L158.317 76.6431L158.231 76.4689C157.991 75.9883 157.645 75.5209 157.197 75.0821C156.75 74.6412 156.196 74.2708 155.555 73.982C154.909 73.6887 154.141 73.541 153.277 73.541C152.413 73.541 151.604 73.6975 150.909 74.0084C150.21 74.3215 149.648 74.7624 149.236 75.3202C148.819 75.8846 148.608 76.5461 148.608 77.2869C148.608 77.9328 148.746 78.495 149.022 78.9558C149.291 79.4078 149.637 79.7936 150.049 80.1023C150.453 80.4043 150.881 80.6579 151.326 80.8563C151.762 81.0525 152.166 81.2091 152.525 81.3237C153.11 81.5199 153.636 81.7228 154.086 81.9256C154.516 82.1174 154.851 82.3533 155.081 82.6223C155.299 82.878 155.409 83.2242 155.409 83.6475C155.409 84.1149 155.235 84.4809 154.876 84.7697C154.51 85.0629 154.02 85.2128 153.42 85.2128C152.927 85.2128 152.468 85.1114 152.058 84.9152C151.641 84.7146 151.258 84.4324 150.918 84.0752C150.57 83.7114 150.241 83.2749 149.939 82.7766L149.831 82.598L149.655 82.7127L147.869 83.8768L147.717 83.976L147.798 84.1347C148.118 84.7521 148.559 85.3319 149.106 85.8566C149.655 86.3835 150.303 86.8113 151.033 87.1265C151.765 87.4418 152.567 87.6028 153.418 87.6028C154.044 87.6028 154.657 87.5079 155.237 87.3205C155.817 87.1331 156.346 86.8642 156.809 86.5202C157.276 86.1719 157.656 85.7376 157.931 85.2261C158.209 84.7101 158.35 84.1237 158.35 83.4799C158.35 82.8758 158.233 82.3379 158.004 81.8815C157.777 81.4295 157.479 81.0349 157.118 80.7064H157.12ZM151.778 76.1536C152.012 75.942 152.345 75.8097 152.774 75.7568C152.342 75.8097 152.012 75.942 151.778 76.1536ZM154.488 75.9839C154.309 75.9001 154.115 75.8361 153.905 75.7943C154.113 75.8361 154.307 75.9001 154.488 75.9839ZM156.712 74.919C156.353 74.6279 155.938 74.3744 155.471 74.165C155.938 74.3766 156.35 74.6279 156.712 74.919ZM153.703 81.5464C153.487 81.4582 153.262 81.3722 153.021 81.2862C153.262 81.3722 153.487 81.4604 153.703 81.5464ZM155.237 82.4944C155.008 82.2254 154.686 81.9939 154.28 81.7977C154.686 81.9939 155.006 82.2232 155.237 82.4944C155.363 82.6421 155.455 82.8119 155.519 83.0037C155.458 82.8119 155.363 82.6421 155.237 82.4944ZM150.005 83.2528C149.924 83.1338 149.844 83.0103 149.767 82.8802C149.844 83.0081 149.924 83.1316 150.005 83.2528ZM150.118 86.4056C150.429 86.6106 150.762 86.7892 151.116 86.9435C150.762 86.7914 150.429 86.6106 150.118 86.4056ZM155.178 87.1309C155.036 87.1772 154.895 87.2169 154.752 87.25C154.465 87.3183 154.172 87.3624 153.875 87.3867C154.172 87.3646 154.465 87.3183 154.752 87.25C154.895 87.2169 155.036 87.1772 155.178 87.1309C155.319 87.0846 155.455 87.0361 155.588 86.981C155.455 87.0361 155.319 87.0868 155.178 87.1309ZM158.094 84.1435C158.07 84.2846 158.037 84.4235 157.995 84.5558C158.037 84.4213 158.07 84.2846 158.094 84.1435C158.119 84.0024 158.136 83.8569 158.143 83.707C158.134 83.8569 158.119 84.0024 158.094 84.1435Z" fill="#1F1D4E"/>
<path d="M170.525 73.1639L170.344 72.8024L170.161 73.1662L163.22 87.0317L163.077 87.3205H163.403H166.102H166.234L166.287 87.1992L168.298 82.6024L170.344 78.1819L172.432 82.6641L174.398 87.1992L174.451 87.3205H174.586H177.304H177.631L177.487 87.0317L170.525 73.1639Z" fill="#1F1D4E"/>
<path d="M191.65 73.7857H191.447V73.9863V82.3466L181.416 73.1816L181.076 72.8707V73.3293V87.1221V87.3205H181.279H183.634H183.836V87.1221V78.7596L193.866 87.9246L194.208 88.2355V87.7769V73.9863V73.7857H194.005H191.65Z" fill="#1F1D4E"/>
<path d="M205.101 73.1639L204.918 72.8024L204.737 73.1662L197.797 87.0339L197.653 87.3227H200.813L200.866 87.2014L202.874 82.6046L204.92 78.1819L207.008 82.6641L208.975 87.2014L209.027 87.3227H212.207L212.061 87.0339L205.101 73.1662V73.1639Z" fill="#1F1D4E"/>
<path d="M224.766 74.6234C223.646 74.0678 222.332 73.7856 220.859 73.7856H216.07V87.3204H220.859C222.332 87.3204 223.646 87.0382 224.766 86.4826C225.89 85.9248 226.781 85.129 227.414 84.1192C228.046 83.1094 228.368 81.9101 228.368 80.5519C228.368 79.1938 228.046 77.9945 227.414 76.9847C226.781 75.9749 225.89 75.1812 224.766 74.6212V74.6234ZM222.682 84.5579C222.111 84.7453 221.476 84.8379 220.797 84.8379H218.93V76.2682H220.797C221.476 76.2682 222.111 76.3608 222.684 76.5393C223.251 76.7179 223.749 76.9891 224.166 77.3441C224.581 77.699 224.911 78.1488 225.147 78.6801C225.385 79.2159 225.507 79.8442 225.507 80.5519C225.507 81.2597 225.385 81.888 225.147 82.4238C224.909 82.9573 224.581 83.4027 224.166 83.7488C223.749 84.0993 223.249 84.3705 222.682 84.5557V84.5579ZM224.887 77.8269C225.059 78.0606 225.209 78.3186 225.335 78.6008C225.209 78.3186 225.061 78.0606 224.887 77.8269ZM224.298 77.1941C223.86 76.8193 223.341 76.5371 222.746 76.3497C222.449 76.2549 222.138 76.1866 221.811 76.1381C221.492 76.0918 221.159 76.0697 220.815 76.0675C221.161 76.0675 221.494 76.0918 221.811 76.1381C222.136 76.1844 222.446 76.2549 222.746 76.3497C223.341 76.5371 223.86 76.8193 224.298 77.1941C224.409 77.2889 224.512 77.3882 224.609 77.494C224.512 77.3882 224.406 77.2889 224.298 77.1941ZM223.818 74.4449C223.225 74.2398 222.59 74.1053 221.911 74.037C222.59 74.1053 223.227 74.242 223.818 74.4449ZM223.818 86.6612C223.227 86.8663 222.59 87.0008 221.911 87.0691C222.59 87.0008 223.227 86.8641 223.818 86.6612Z" fill="#1F1D4E"/>
<path d="M242.053 74.6234C240.933 74.0678 239.619 73.7856 238.146 73.7856H233.357V87.3204H238.146C239.619 87.3204 240.933 87.0382 242.053 86.4826C243.177 85.9248 244.068 85.129 244.701 84.1192C245.333 83.1094 245.655 81.9101 245.655 80.5519C245.655 79.1938 245.333 77.9945 244.701 76.9847C244.068 75.9749 243.177 75.1812 242.053 74.6212V74.6234ZM240.033 76.3497C240.629 76.5371 241.147 76.8193 241.585 77.1941C241.696 77.2889 241.799 77.3882 241.896 77.494C241.799 77.3882 241.693 77.2889 241.585 77.1941C241.147 76.8193 240.629 76.5371 240.033 76.3497C239.736 76.2549 239.425 76.1866 239.099 76.1381C238.774 76.0918 238.435 76.0675 238.084 76.0675C238.437 76.0675 238.774 76.0918 239.099 76.1381C239.423 76.1844 239.733 76.2549 240.033 76.3497ZM241.453 83.751C241.036 84.1015 240.536 84.3727 239.969 84.5579C239.398 84.7453 238.763 84.8379 238.084 84.8379H236.217V76.2682H238.084C238.763 76.2682 239.398 76.3608 239.972 76.5393C240.538 76.7179 241.036 76.9891 241.453 77.3441C241.868 77.699 242.198 78.1488 242.434 78.6801C242.672 79.2159 242.794 79.8442 242.794 80.5519C242.794 81.2597 242.672 81.888 242.434 82.4238C242.196 82.9573 241.868 83.4027 241.453 83.7488V83.751ZM242.174 77.8269C242.346 78.0606 242.496 78.3186 242.622 78.6008C242.496 78.3186 242.348 78.0606 242.174 77.8269Z" fill="#1F1D4E"/>
<path d="M256.965 73.1639L256.782 72.8024L256.602 73.1662L249.661 87.0317L249.516 87.3205H249.842H252.541H252.675L252.728 87.1992L254.736 82.6024L256.785 78.1819L258.872 82.6641L260.839 87.1992L260.89 87.3205H261.024H263.745H264.071L263.926 87.0317L256.965 73.1639Z" fill="#1F1D4E"/>
<path d="M279.703 86.9875L273.516 80.1441L279.394 74.123L279.725 73.7857H276.259L276.199 73.8474L271.272 78.9579V73.7834H268.41V87.3183H271.272V81.511L276.438 87.2521L276.497 87.3183H280.003L279.703 86.9853V86.9875Z" fill="#1F1D4E"/>
</g>
<defs>
<linearGradient id="paint0_linear_1040_3478" x1="0" y1="66.1417" x2="132.283" y2="66.1417" gradientUnits="userSpaceOnUse">
<stop stop-color="#D79129"/>
<stop offset="0.3" stop-color="#E49F26"/>
<stop offset="0.6" stop-color="#EAAB21"/>
<stop offset="0.8" stop-color="#F1B61C"/>
<stop offset="1" stop-color="#FAC214"/>
</linearGradient>
<clipPath id="clip0_1040_3478">
<rect width="280" height="132.283" fill="white"/>
</clipPath>
</defs>
</svg>
