<svg width="21" height="20" viewBox="0 0 21 20" fill="none" xmlns="http://www.w3.org/2000/svg">
<path d="M7.8665 15.3679V16.6645C7.8665 16.8498 7.7098 17 7.5165 17C7.43462 17 7.35534 16.9725 7.29244 16.9222L4.40915 14.6192C4.26066 14.5005 4.24059 14.289 4.36434 14.1466C4.43084 14.0702 4.52935 14.0259 4.63322 14.0259H14.8665C15.6397 14.0259 16.2665 13.4251 16.2665 12.684V7.31608H17.6665V12.684C17.6665 14.1662 16.4129 15.3679 14.8665 15.3679H7.8665ZM13.4665 4.63215V3.33549C13.4665 3.15021 13.6232 3 13.8165 3C13.8984 3 13.9776 3.02752 14.0406 3.07776L16.9239 5.3809C17.0723 5.49952 17.0924 5.71107 16.9687 5.85341C16.9022 5.9299 16.8037 5.97412 16.6998 5.97412L6.4665 5.97411C5.6933 5.97411 5.0665 6.57493 5.0665 7.31608V12.684H3.6665V7.31608C3.6665 5.83378 4.92011 4.63215 6.4665 4.63215H13.4665Z" fill="#D79129"/>
</svg>
